<svg width="36" height="36" viewBox="0 0 36 36" fill="none" xmlns="http://www.w3.org/2000/svg">
<mask id="mask0_114_15" style="mask-type:alpha" maskUnits="userSpaceOnUse" x="0" y="0" width="36" height="36">
<rect width="36" height="36" fill="#D9D9D9"/>
</mask>
<g mask="url(#mask0_114_15)">
<path d="M28.5 34.5L26.4 32.4L28.7625 30H22.5V27H28.7625L26.3625 24.6L28.5 22.5L34.5 28.5L28.5 34.5ZM6 30C5.175 30 4.469 29.7065 3.882 29.1195C3.294 28.5315 3 27.825 3 27V9C3 8.175 3.294 7.469 3.882 6.882C4.469 6.294 5.175 6 6 6H30C30.825 6 31.5315 6.294 32.1195 6.882C32.7065 7.469 33 8.175 33 9V20.7C32.325 20.3 31.606 20 30.843 19.8C30.081 19.6 29.3 19.5 28.5 19.5C26 19.5 23.875 20.375 22.125 22.125C20.375 23.875 19.5 26 19.5 28.5V30H6ZM18 19.5L30 12V9L18 16.5L6 9V12L18 19.5Z" fill="#fff"/>
</g>
</svg>
