<svg width="100" height="100" viewBox="0 0 100 100" fill="none" xmlns="http://www.w3.org/2000/svg">
<rect width="100" height="100" rx="50" fill="#CCCCCC"/>
<path d="M54.04 14.84C62.616 14.84 70.008 17.56 76.216 23L68.248 31.352C65.88 29.56 63.672 28.28 61.624 27.512C59.64 26.68 57.336 26.264 54.712 26.264C49.784 26.264 45.848 28.216 42.904 32.12C39.96 35.96 38.488 41.816 38.488 49.688C38.488 58.2 39.608 64.248 41.848 67.832C44.088 71.352 47.576 73.112 52.312 73.112C55.64 73.112 58.648 72.376 61.336 70.904V55.832H52.696L51.16 44.696H76.6V77.624C73.144 79.864 69.336 81.592 65.176 82.808C61.016 84.024 56.856 84.632 52.696 84.632C42.584 84.632 34.968 81.688 29.848 75.8C24.728 69.848 22.168 61.144 22.168 49.688C22.168 42.392 23.544 36.12 26.296 30.872C29.112 25.624 32.92 21.656 37.72 18.968C42.584 16.216 48.024 14.84 54.04 14.84Z" fill="black"/>
</svg>
