<svg width="32" height="32" viewBox="0 0 32 32" fill="none" xmlns="http://www.w3.org/2000/svg">
<circle cx="16" cy="16" r="16" fill="#D9D9D9"/>
<path d="M16.95 4.7C19.63 4.7 21.94 5.55 23.88 7.25L21.39 9.86C20.65 9.3 19.96 8.9 19.32 8.66C18.7 8.4 17.98 8.27 17.16 8.27C15.62 8.27 14.39 8.88 13.47 10.1C12.55 11.3 12.09 13.13 12.09 15.59C12.09 18.25 12.44 20.14 13.14 21.26C13.84 22.36 14.93 22.91 16.41 22.91C17.45 22.91 18.39 22.68 19.23 22.22V17.51H16.53L16.05 14.03H24V24.32C22.92 25.02 21.73 25.56 20.43 25.94C19.13 26.32 17.83 26.51 16.53 26.51C13.37 26.51 10.99 25.59 9.39 23.75C7.79 21.89 6.99 19.17 6.99 15.59C6.99 13.31 7.42 11.35 8.28 9.71C9.16 8.07 10.35 6.83 11.85 5.99C13.37 5.13 15.07 4.7 16.95 4.7Z" fill="black"/>
</svg>
