<svg width="100" height="100" viewBox="0 0 100 100" fill="none" xmlns="http://www.w3.org/2000/svg">
<rect width="100" height="100" fill="#CCCCCC"/>
<path d="M54.04 13.84C62.616 13.84 70.008 16.56 76.216 22L68.248 30.352C65.88 28.56 63.672 27.28 61.624 26.512C59.64 25.68 57.336 25.264 54.712 25.264C49.784 25.264 45.848 27.216 42.904 31.12C39.96 34.96 38.488 40.816 38.488 48.688C38.488 57.2 39.608 63.248 41.848 66.832C44.088 70.352 47.576 72.112 52.312 72.112C55.64 72.112 58.648 71.376 61.336 69.904V54.832H52.696L51.16 43.696H76.6V76.624C73.144 78.864 69.336 80.592 65.176 81.808C61.016 83.024 56.856 83.632 52.696 83.632C42.584 83.632 34.968 80.688 29.848 74.8C24.728 68.848 22.168 60.144 22.168 48.688C22.168 41.392 23.544 35.12 26.296 29.872C29.112 24.624 32.92 20.656 37.72 17.968C42.584 15.216 48.024 13.84 54.04 13.84Z" fill="black"/>
</svg>
