<svg width="48" height="48" viewBox="0 0 48 48" fill="none" xmlns="http://www.w3.org/2000/svg">
<circle cx="24" cy="24" r="24" fill="#D9D9D9"/>
<path d="M25.6 8.6C29.1733 8.6 32.2533 9.73333 34.84 12L31.52 15.48C30.5333 14.7333 29.6133 14.2 28.76 13.88C27.9333 13.5333 26.9733 13.36 25.88 13.36C23.8267 13.36 22.1867 14.1733 20.96 15.8C19.7333 17.4 19.12 19.84 19.12 23.12C19.12 26.6667 19.5867 29.1867 20.52 30.68C21.4533 32.1467 22.9067 32.88 24.88 32.88C26.2667 32.88 27.52 32.5733 28.64 31.96V25.68H25.04L24.4 21.04H35V34.76C33.56 35.6933 31.9733 36.4133 30.24 36.92C28.5067 37.4267 26.7733 37.68 25.04 37.68C20.8267 37.68 17.6533 36.4533 15.52 34C13.3867 31.52 12.32 27.8933 12.32 23.12C12.32 20.08 12.8933 17.4667 14.04 15.28C15.2133 13.0933 16.8 11.44 18.8 10.32C20.8267 9.17333 23.0933 8.6 25.6 8.6Z" fill="black"/>
</svg>
