<svg width="319" height="40" viewBox="0 0 319 40" fill="none" xmlns="http://www.w3.org/2000/svg">
<path d="M16.52 4.92002C20.808 4.92002 24.504 6.28002 27.608 9.00002L23.624 13.176C22.44 12.28 21.336 11.64 20.312 11.256C19.32 10.84 18.168 10.632 16.856 10.632C14.392 10.632 12.424 11.608 10.952 13.56C9.47999 15.48 8.74399 18.408 8.74399 22.344C8.74399 26.6 9.30398 29.624 10.424 31.416C11.544 33.176 13.288 34.056 15.656 34.056C17.32 34.056 18.824 33.688 20.168 32.952V25.416H15.848L15.08 19.848H27.8V36.312C26.072 37.432 24.168 38.296 22.088 38.904C20.008 39.512 17.928 39.816 15.848 39.816C10.792 39.816 6.98398 38.344 4.42398 35.4C1.86398 32.424 0.583984 28.072 0.583984 22.344C0.583984 18.696 1.27198 15.56 2.64798 12.936C4.05598 10.312 5.95998 8.32802 8.35998 6.98402C10.792 5.60802 13.512 4.92002 16.52 4.92002Z" fill="#141414"/>
<path d="M53.1695 31.608C53.1695 32.568 53.2975 33.272 53.5535 33.72C53.8415 34.168 54.2895 34.504 54.8975 34.728L53.3135 39.672C51.7455 39.544 50.4655 39.208 49.4735 38.664C48.4815 38.088 47.7135 37.192 47.1695 35.976C45.5055 38.536 42.9455 39.816 39.4895 39.816C36.9615 39.816 34.9455 39.08 33.4415 37.608C31.9375 36.136 31.1855 34.216 31.1855 31.848C31.1855 29.064 32.2095 26.936 34.2575 25.464C36.3055 23.992 39.2655 23.256 43.1375 23.256H45.7295V22.152C45.7295 20.648 45.4095 19.624 44.7695 19.08C44.1295 18.504 43.0095 18.216 41.4095 18.216C40.5775 18.216 39.5695 18.344 38.3855 18.6C37.2015 18.824 35.9855 19.144 34.7375 19.56L33.0095 14.568C34.6095 13.96 36.2415 13.496 37.9055 13.176C39.6015 12.856 41.1695 12.696 42.6095 12.696C46.2575 12.696 48.9295 13.448 50.6255 14.952C52.3215 16.456 53.1695 18.712 53.1695 21.72V31.608ZM41.6975 34.392C43.4255 34.392 44.7695 33.576 45.7295 31.944V27.432H43.8575C42.1295 27.432 40.8335 27.736 39.9695 28.344C39.1375 28.952 38.7215 29.896 38.7215 31.176C38.7215 32.2 38.9775 33 39.4895 33.576C40.0335 34.12 40.7695 34.392 41.6975 34.392Z" fill="#141414"/>
<path d="M73.6584 12.696C76.6984 12.696 79.0344 13.896 80.6664 16.296C82.2984 18.664 83.1144 21.992 83.1144 26.28C83.1144 28.904 82.6984 31.24 81.8664 33.288C81.0664 35.336 79.8984 36.936 78.3624 38.088C76.8584 39.24 75.0664 39.816 72.9864 39.816C71.6104 39.816 70.3464 39.528 69.1944 38.952C68.0744 38.376 67.1144 37.576 66.3144 36.552L65.9304 39H59.2104V3.38402L66.7944 2.56802V16.104C67.5624 15.048 68.5384 14.216 69.7224 13.608C70.9384 13 72.2504 12.696 73.6584 12.696ZM70.7784 34.296C73.7544 34.296 75.2424 31.624 75.2424 26.28C75.2424 23.24 74.8904 21.144 74.1864 19.992C73.4824 18.84 72.4584 18.264 71.1144 18.264C69.4184 18.264 67.9784 19.256 66.7944 21.24V31.848C67.2744 32.616 67.8504 33.224 68.5224 33.672C69.2264 34.088 69.9784 34.296 70.7784 34.296Z" fill="#141414"/>
<path d="M101.675 12.792C102.603 12.792 103.451 12.904 104.219 13.128L103.019 20.472C102.059 20.248 101.291 20.136 100.715 20.136C99.211 20.136 98.059 20.664 97.259 21.72C96.491 22.744 95.883 24.296 95.435 26.376V39H87.851V13.512H94.475L95.099 18.456C95.675 16.696 96.539 15.32 97.691 14.328C98.875 13.304 100.203 12.792 101.675 12.792Z" fill="#141414"/>
<path d="M114.701 13.512V39H107.117V13.512H114.701ZM110.861 0.0720215C112.173 0.0720215 113.245 0.488022 114.077 1.32002C114.941 2.12002 115.373 3.14402 115.373 4.39202C115.373 5.64002 114.941 6.68002 114.077 7.51202C113.245 8.31202 112.173 8.71202 110.861 8.71202C109.549 8.71202 108.477 8.31202 107.645 7.51202C106.813 6.68002 106.397 5.64002 106.397 4.39202C106.397 3.14402 106.813 2.12002 107.645 1.32002C108.477 0.488022 109.549 0.0720215 110.861 0.0720215Z" fill="#141414"/>
<path d="M142.887 25.752C142.887 26.808 142.839 27.72 142.743 28.488H126.951C127.207 30.632 127.815 32.136 128.775 33C129.735 33.864 131.063 34.296 132.759 34.296C133.783 34.296 134.775 34.12 135.735 33.768C136.695 33.384 137.735 32.808 138.855 32.04L141.975 36.264C138.999 38.632 135.687 39.816 132.039 39.816C127.911 39.816 124.743 38.6 122.535 36.168C120.327 33.736 119.223 30.472 119.223 26.376C119.223 23.784 119.687 21.464 120.615 19.416C121.543 17.336 122.903 15.704 124.695 14.52C126.487 13.304 128.631 12.696 131.127 12.696C134.807 12.696 137.687 13.848 139.767 16.152C141.847 18.456 142.887 21.656 142.887 25.752ZM135.447 23.592C135.383 19.688 134.007 17.736 131.319 17.736C130.007 17.736 128.983 18.216 128.247 19.176C127.543 20.136 127.111 21.72 126.951 23.928H135.447V23.592Z" fill="#141414"/>
<path d="M153.916 39.816C151.708 39.816 149.98 39.192 148.732 37.944C147.516 36.664 146.908 34.856 146.908 32.52V3.38402L154.492 2.56802V32.232C154.492 33.288 154.924 33.816 155.788 33.816C156.236 33.816 156.652 33.736 157.036 33.576L158.524 38.952C157.148 39.528 155.612 39.816 153.916 39.816Z" fill="#141414"/>
<path d="M187.332 4.92002C191.62 4.92002 195.316 6.28002 198.42 9.00002L194.436 13.176C193.252 12.28 192.148 11.64 191.124 11.256C190.132 10.84 188.98 10.632 187.668 10.632C185.204 10.632 183.236 11.608 181.764 13.56C180.292 15.48 179.556 18.408 179.556 22.344C179.556 26.6 180.116 29.624 181.236 31.416C182.356 33.176 184.1 34.056 186.468 34.056C188.132 34.056 189.636 33.688 190.98 32.952V25.416H186.66L185.892 19.848H198.612V36.312C196.884 37.432 194.98 38.296 192.9 38.904C190.82 39.512 188.74 39.816 186.66 39.816C181.604 39.816 177.796 38.344 175.236 35.4C172.676 32.424 171.396 28.072 171.396 22.344C171.396 18.696 172.084 15.56 173.46 12.936C174.868 10.312 176.772 8.32802 179.172 6.98402C181.604 5.60802 184.324 4.92002 187.332 4.92002Z" fill="#141414"/>
<path d="M214.766 12.696C218.67 12.696 221.726 13.896 223.934 16.296C226.142 18.664 227.246 21.992 227.246 26.28C227.246 29 226.734 31.384 225.71 33.432C224.718 35.448 223.278 37.016 221.39 38.136C219.534 39.256 217.326 39.816 214.766 39.816C210.894 39.816 207.838 38.632 205.598 36.264C203.39 33.864 202.286 30.52 202.286 26.232C202.286 23.512 202.782 21.144 203.774 19.128C204.798 17.08 206.238 15.496 208.094 14.376C209.982 13.256 212.206 12.696 214.766 12.696ZM214.766 18.264C213.23 18.264 212.078 18.92 211.31 20.232C210.542 21.512 210.158 23.512 210.158 26.232C210.158 29.016 210.526 31.048 211.262 32.328C212.03 33.608 213.198 34.248 214.766 34.248C216.302 34.248 217.454 33.608 218.222 32.328C218.99 31.016 219.374 29 219.374 26.28C219.374 23.496 218.99 21.464 218.222 20.184C217.486 18.904 216.334 18.264 214.766 18.264Z" fill="#141414"/>
<path d="M259.933 12.696C261.949 12.696 263.565 13.384 264.781 14.76C265.997 16.104 266.605 17.976 266.605 20.376V39H259.021V21.672C259.021 19.4 258.301 18.264 256.861 18.264C256.061 18.264 255.357 18.536 254.749 19.08C254.141 19.624 253.549 20.456 252.973 21.576V39H245.389V21.672C245.389 19.4 244.669 18.264 243.229 18.264C242.461 18.264 241.757 18.552 241.117 19.128C240.509 19.672 239.917 20.488 239.341 21.576V39H231.757V13.512H238.381L238.909 16.488C239.901 15.208 240.989 14.264 242.173 13.656C243.389 13.016 244.765 12.696 246.301 12.696C247.741 12.696 248.973 13.048 249.997 13.752C251.053 14.456 251.821 15.448 252.301 16.728C253.325 15.352 254.445 14.344 255.661 13.704C256.909 13.032 258.333 12.696 259.933 12.696Z" fill="#141414"/>
<path d="M294.528 25.752C294.528 26.808 294.48 27.72 294.384 28.488H278.592C278.848 30.632 279.456 32.136 280.416 33C281.376 33.864 282.704 34.296 284.4 34.296C285.424 34.296 286.416 34.12 287.376 33.768C288.336 33.384 289.376 32.808 290.496 32.04L293.616 36.264C290.64 38.632 287.328 39.816 283.68 39.816C279.552 39.816 276.384 38.6 274.176 36.168C271.968 33.736 270.864 30.472 270.864 26.376C270.864 23.784 271.328 21.464 272.256 19.416C273.184 17.336 274.544 15.704 276.336 14.52C278.128 13.304 280.272 12.696 282.768 12.696C286.448 12.696 289.328 13.848 291.408 16.152C293.488 18.456 294.528 21.656 294.528 25.752ZM287.088 23.592C287.024 19.688 285.648 17.736 282.96 17.736C281.648 17.736 280.624 18.216 279.888 19.176C279.184 20.136 278.752 21.72 278.592 23.928H287.088V23.592Z" fill="#141414"/>
<path d="M307.764 12.696C309.588 12.696 311.3 12.968 312.9 13.512C314.5 14.056 315.908 14.824 317.124 15.816L314.34 20.088C312.26 18.776 310.164 18.12 308.052 18.12C307.06 18.12 306.292 18.296 305.748 18.648C305.236 18.968 304.98 19.432 304.98 20.04C304.98 20.52 305.092 20.92 305.316 21.24C305.572 21.528 306.068 21.832 306.804 22.152C307.54 22.472 308.676 22.856 310.212 23.304C312.868 24.072 314.836 25.08 316.116 26.328C317.428 27.544 318.084 29.24 318.084 31.416C318.084 33.144 317.588 34.648 316.596 35.928C315.604 37.176 314.244 38.136 312.516 38.808C310.788 39.48 308.868 39.816 306.757 39.816C304.613 39.816 302.612 39.48 300.756 38.808C298.932 38.136 297.38 37.208 296.1 36.024L299.796 31.896C301.94 33.56 304.196 34.392 306.564 34.392C307.716 34.392 308.612 34.184 309.252 33.768C309.924 33.352 310.26 32.76 310.26 31.992C310.26 31.384 310.132 30.904 309.876 30.552C309.62 30.2 309.124 29.88 308.388 29.592C307.652 29.272 306.484 28.888 304.884 28.44C302.356 27.704 300.468 26.68 299.22 25.368C297.972 24.056 297.348 22.424 297.348 20.472C297.348 19 297.764 17.688 298.596 16.536C299.46 15.352 300.676 14.424 302.244 13.752C303.844 13.048 305.684 12.696 307.764 12.696Z" fill="#141414"/>
</svg>